<?xml version="1.0" standalone="no"?>
<!DOCTYPE svg PUBLIC "-//W3C//DTD SVG 20010904//EN"
 "http://www.w3.org/TR/2001/REC-SVG-20010904/DTD/svg10.dtd">
<svg version="1.0" xmlns="http://www.w3.org/2000/svg"
 width="101.000000pt" height="90.000000pt" viewBox="0 0 101.000000 90.000000"
 preserveAspectRatio="xMidYMid meet">

<g transform="translate(0.000000,90.000000) scale(0.100000,-0.100000)"
fill="#000000" stroke="none">
<path d="M0 450 l0 -450 505 0 505 0 0 450 0 450 -505 0 -505 0 0 -450z m495
290 c47 -29 65 -76 72 -183 7 -101 10 -99 43 29 28 106 51 144 88 144 32 0 75
-39 92 -84 7 -19 10 -87 8 -180 -2 -83 1 -157 5 -164 11 -17 43 1 60 34 12 23
15 24 26 10 29 -35 -28 -106 -84 -106 -79 0 -95 43 -95 255 0 91 -4 165 -9
165 -20 0 -77 -198 -102 -353 -12 -77 -12 -78 -38 -72 -14 3 -37 17 -51 31
-24 23 -25 29 -31 221 -7 221 -6 203 -18 203 -17 0 -82 -241 -111 -412 -11
-60 -15 -68 -34 -68 -12 0 -35 14 -52 31 -28 30 -29 33 -29 137 0 59 3 145 7
192 10 112 4 122 -58 92 -35 -17 -49 -20 -59 -12 -20 17 -8 38 40 65 49 29 65
31 105 10 51 -26 63 -65 58 -179 l-5 -101 19 80 c30 130 46 180 69 208 25 32
41 34 84 7z"/>
</g>
</svg>
